<mxfile host="app.diagrams.net" agent="Mozilla/5.0 (Windows NT 10.0; Win64; x64) AppleWebKit/537.36 (KHTML, like Gecko) Chrome/138.0.0.0 Safari/537.36" version="28.0.9">
  <diagram name="Página-1" id="z99FFHsPJoyMuPKkLOfL">
    <mxGraphModel dx="946" dy="605" grid="1" gridSize="10" guides="1" tooltips="1" connect="1" arrows="1" fold="1" page="1" pageScale="1" pageWidth="827" pageHeight="1169" math="0" shadow="0">
      <root>
        <mxCell id="0" />
        <mxCell id="1" parent="0" />
        <mxCell id="5gMiL4Qt_F5TNdLZ4nxY-1" value="Actor" style="shape=umlActor;verticalLabelPosition=bottom;verticalAlign=top;html=1;outlineConnect=0;" vertex="1" parent="1">
          <mxGeometry x="280" y="230" width="110" height="180" as="geometry" />
        </mxCell>
        <mxCell id="5gMiL4Qt_F5TNdLZ4nxY-5" value="Usuário adminstrador" style="text;html=1;align=center;verticalAlign=middle;whiteSpace=wrap;rounded=0;fontSize=17;" vertex="1" parent="1">
          <mxGeometry x="227" y="179" width="230" height="70" as="geometry" />
        </mxCell>
        <mxCell id="5gMiL4Qt_F5TNdLZ4nxY-6" value="" style="rounded=0;whiteSpace=wrap;html=1;" vertex="1" parent="1">
          <mxGeometry x="520" y="190" width="210" height="460" as="geometry" />
        </mxCell>
        <mxCell id="5gMiL4Qt_F5TNdLZ4nxY-7" value="SISTEMA" style="text;html=1;align=center;verticalAlign=middle;whiteSpace=wrap;rounded=0;" vertex="1" parent="1">
          <mxGeometry x="550" y="190" width="150" height="50" as="geometry" />
        </mxCell>
        <mxCell id="5gMiL4Qt_F5TNdLZ4nxY-33" style="edgeStyle=orthogonalEdgeStyle;rounded=0;orthogonalLoop=1;jettySize=auto;html=1;" edge="1" parent="1" source="5gMiL4Qt_F5TNdLZ4nxY-8" target="5gMiL4Qt_F5TNdLZ4nxY-1">
          <mxGeometry relative="1" as="geometry" />
        </mxCell>
        <mxCell id="5gMiL4Qt_F5TNdLZ4nxY-8" value="Exibir tela de apresntação" style="ellipse;whiteSpace=wrap;html=1;fontStyle=1" vertex="1" parent="1">
          <mxGeometry x="535" y="240" width="180" height="60" as="geometry" />
        </mxCell>
        <mxCell id="5gMiL4Qt_F5TNdLZ4nxY-34" style="edgeStyle=orthogonalEdgeStyle;rounded=0;orthogonalLoop=1;jettySize=auto;html=1;" edge="1" parent="1" source="5gMiL4Qt_F5TNdLZ4nxY-13" target="5gMiL4Qt_F5TNdLZ4nxY-1">
          <mxGeometry relative="1" as="geometry" />
        </mxCell>
        <mxCell id="5gMiL4Qt_F5TNdLZ4nxY-13" value="Cadastrar produto&lt;div&gt;&lt;br&gt;&lt;/div&gt;" style="ellipse;whiteSpace=wrap;html=1;fontStyle=1;fontSize=12;" vertex="1" parent="1">
          <mxGeometry x="535" y="320" width="180" height="60" as="geometry" />
        </mxCell>
        <mxCell id="5gMiL4Qt_F5TNdLZ4nxY-35" style="edgeStyle=orthogonalEdgeStyle;rounded=0;orthogonalLoop=1;jettySize=auto;html=1;" edge="1" parent="1" source="5gMiL4Qt_F5TNdLZ4nxY-14" target="5gMiL4Qt_F5TNdLZ4nxY-1">
          <mxGeometry relative="1" as="geometry" />
        </mxCell>
        <mxCell id="5gMiL4Qt_F5TNdLZ4nxY-14" value="Editar produto" style="ellipse;whiteSpace=wrap;html=1;fontStyle=1" vertex="1" parent="1">
          <mxGeometry x="540" y="410" width="180" height="60" as="geometry" />
        </mxCell>
        <mxCell id="5gMiL4Qt_F5TNdLZ4nxY-36" style="edgeStyle=orthogonalEdgeStyle;rounded=0;orthogonalLoop=1;jettySize=auto;html=1;" edge="1" parent="1" source="5gMiL4Qt_F5TNdLZ4nxY-15" target="5gMiL4Qt_F5TNdLZ4nxY-1">
          <mxGeometry relative="1" as="geometry" />
        </mxCell>
        <mxCell id="5gMiL4Qt_F5TNdLZ4nxY-15" value="Listar produto" style="ellipse;whiteSpace=wrap;html=1;fontStyle=1" vertex="1" parent="1">
          <mxGeometry x="541" y="502" width="180" height="60" as="geometry" />
        </mxCell>
        <mxCell id="5gMiL4Qt_F5TNdLZ4nxY-37" style="edgeStyle=orthogonalEdgeStyle;rounded=0;orthogonalLoop=1;jettySize=auto;html=1;" edge="1" parent="1" source="5gMiL4Qt_F5TNdLZ4nxY-23" target="5gMiL4Qt_F5TNdLZ4nxY-1">
          <mxGeometry relative="1" as="geometry" />
        </mxCell>
        <mxCell id="5gMiL4Qt_F5TNdLZ4nxY-23" value="Remover produto" style="ellipse;whiteSpace=wrap;html=1;fontStyle=1" vertex="1" parent="1">
          <mxGeometry x="541" y="577" width="180" height="60" as="geometry" />
        </mxCell>
      </root>
    </mxGraphModel>
  </diagram>
</mxfile>
